<?xml version="1.0" encoding="UTF-8" standalone="no" ?>
<!DOCTYPE svg PUBLIC "-//W3C//DTD SVG 1.1//EN" "http://www.w3.org/Graphics/SVG/1.1/DTD/svg11.dtd">
<svg xmlns="http://www.w3.org/2000/svg" xmlns:xlink="http://www.w3.org/1999/xlink" version="1.1" width="1280" height="1024" viewBox="0 0 1280 1024" xml:space="preserve">
<desc>Created with Fabric.js 5.3.0</desc>
<defs>
</defs>
<g transform="matrix(1 0 0 1 640 512)" id="background-logo"  >
<rect style="stroke: none; stroke-width: 0; stroke-dasharray: none; stroke-linecap: butt; stroke-dashoffset: 0; stroke-linejoin: miter; stroke-miterlimit: 4; fill: rgb(255,255,255); fill-opacity: 0; fill-rule: nonzero; opacity: 1;"  paint-order="stroke"  x="-640" y="-512" rx="0" ry="0" width="1280" height="1024" />
</g>
<g transform="matrix(4.016617475391789 0 0 4.016617475391789 639.844256672487 510.87864804190576)" id="logo-logo"  >
<g style=""  paint-order="stroke"   >
		<g transform="matrix(1.2266923493329842 0 0 -1.2266923493329842 17.689670228890407 -3.0353029504619258)"  >
<path style="stroke: none; stroke-width: 1; stroke-dasharray: none; stroke-linecap: butt; stroke-dashoffset: 0; stroke-linejoin: miter; stroke-miterlimit: 4; fill: rgb(0,0,0); fill-rule: nonzero; opacity: 1;"  paint-order="stroke"  transform=" translate(-178.7065, -130.93)" d="M 197.437 185.416 C 208.26100000000002 189.617 230.173 193.852 235.872 180.936 L 235.872 180.936 C 240.31900000000002 170.864 233.69500000000002 155.58100000000002 227.05900000000003 148.166 L 227.05900000000003 148.166 L 227.05900000000003 176.945 L 188.24400000000003 176.945 L 182.72200000000004 193.667 L 144.84200000000004 193.667 L 139.32600000000005 176.945 L 108.97100000000005 176.945 C 101.75700000000005 176.945 95.84800000000004 171.043 95.84800000000004 163.82299999999998 L 95.84800000000004 163.82299999999998 L 95.84800000000004 103.73499999999999 C 95.84800000000004 91.08399999999999 105.65300000000005 83.28299999999999 118.48900000000003 82.16999999999999 L 118.48900000000003 82.16999999999999 C 147.98400000000004 79.60899999999998 193.02200000000005 92.00699999999999 215.21000000000004 111.76999999999998 L 215.21000000000004 111.76999999999998 C 209.71 98.648 195.954 81.081 171.193 64.787 L 171.193 64.787 C 202.936 70.50200000000001 251.827 98.858 261.565 137.166 L 261.565 137.166 C 255.425 128.488 247.489 121.08099999999999 233.414 113.46199999999999 L 233.414 113.46199999999999 C 246.36499999999998 129.706 256.12 156.618 251.149 176.773 L 251.149 176.773 C 248.101 189.127 238.815 197.072 226.216 197.073 L 226.216 197.073 C 217.809 197.073 207.929 193.538 197.437 185.416 M 128.17700000000002 136.896 C 128.17700000000002 155.27599999999998 143.079 170.172 161.454 170.172 L 161.454 170.172 C 179.834 170.172 194.73700000000002 155.276 194.73700000000002 136.896 L 194.73700000000002 136.896 C 194.73700000000002 118.51799999999999 179.83400000000003 103.61899999999999 161.454 103.61899999999999 L 161.454 103.61899999999999 C 143.079 103.61899999999999 128.17700000000002 118.51799999999999 128.17700000000002 136.896 M 107.70300000000002 166.047 L 122.51700000000002 166.047 L 122.51700000000002 156.523 L 107.70300000000003 156.523 z" stroke-linecap="round" />
</g>
		<g transform="matrix(1.2266923493329842 0 0 -1.2266923493329842 -3.470159450928918 -10.354362852757163)"  >
<path style="stroke: none; stroke-width: 1; stroke-dasharray: none; stroke-linecap: butt; stroke-dashoffset: 0; stroke-linejoin: miter; stroke-miterlimit: 4; fill: rgb(0,0,0); fill-rule: nonzero; opacity: 1;"  paint-order="stroke"  transform=" translate(-161.457, -136.8965)" d="M 140.175 136.896 C 140.175 125.14299999999999 149.704 115.618 161.454 115.618 L 161.454 115.618 C 173.209 115.618 182.739 125.143 182.739 136.896 L 182.739 136.896 C 182.739 148.648 173.209 158.17499999999998 161.454 158.17499999999998 L 161.454 158.17499999999998 C 149.704 158.17499999999998 140.175 148.648 140.175 136.896" stroke-linecap="round" />
</g>
		<g transform="matrix(1.2266923493329842 0 0 -1.2266923493329842 -58.4114095981887 38.29672180000114)"  >
<path style="stroke: none; stroke-width: 1; stroke-dasharray: none; stroke-linecap: butt; stroke-dashoffset: 0; stroke-linejoin: miter; stroke-miterlimit: 4; fill: rgb(0,0,0); fill-rule: nonzero; opacity: 1;"  paint-order="stroke"  transform=" translate(-116.66887510696206, -97.23612005289075)" d="M 80.62 67.843 C 98.147 55.65 138.853 56.068 166.331 78.339 L 166.331 78.339 C 143.846 69.401 99.993 63.726 83.051 88.107 L 83.051 88.107 C 75.297 99.276 75.369 115.276 91.626 134.63400000000001 L 91.626 134.63400000000001 C 66.711 118.652 56.752 84.441 80.62 67.843" stroke-linecap="round" />
</g>
</g>
</g>
</svg>